<?xml version="1.0" encoding="iso-8859-1"?>
<!-- Uploaded to: SVG Repo, www.svgrepo.com, Generator: SVG Repo Mixer Tools -->
<svg fill="#000000" height="800px" width="800px" version="1.1" id="Layer_1" xmlns="http://www.w3.org/2000/svg" xmlns:xlink="http://www.w3.org/1999/xlink" 
	 viewBox="0 0 512 512" xml:space="preserve">
<g>
	<g>
		<path d="M256,311.652c-9.206,0-16.696,7.49-16.696,16.696s7.49,16.696,16.696,16.696s16.696-7.49,16.696-16.696
			S265.206,311.652,256,311.652z"/>
	</g>
</g>
<g>
	<g>
		<path d="M256,166.957c-9.206,0-16.696,7.49-16.696,16.696c0,9.206,7.49,16.696,16.696,16.696s16.696-7.49,16.696-16.696
			C272.696,174.446,265.206,166.957,256,166.957z"/>
	</g>
</g>
<g>
	<g>
		<path d="M406.261,33.391H372.87V16.696C372.87,7.475,365.394,0,356.174,0H155.826c-9.22,0-16.696,7.475-16.696,16.696v16.696
			h-33.391c-18.412,0-33.391,14.979-33.391,33.391v378.435c0,18.412,14.979,33.391,33.391,33.391h33.391v16.696
			c0,9.22,7.475,16.696,16.696,16.696h200.348c9.22,0,16.696-7.475,16.696-16.696v-16.696h33.391
			c18.412,0,33.391-14.979,33.391-33.391V66.783C439.652,48.371,424.673,33.391,406.261,33.391z M306.087,183.652
			c0,21.766-13.959,40.323-33.391,47.215v50.265c19.433,6.892,33.391,25.45,33.391,47.215s-13.959,40.323-33.391,47.215v36.263
			h16.696c9.22,0,16.696,7.475,16.696,16.696s-7.475,16.696-16.696,16.696h-66.783c-9.22,0-16.696-7.475-16.696-16.696
			s7.475-16.696,16.696-16.696h16.696v-36.263c-19.433-6.892-33.391-25.45-33.391-47.215s13.959-40.323,33.391-47.215v-50.265
			c-19.433-6.892-33.391-25.45-33.391-47.215s13.959-40.323,33.391-47.215v-36.263h-16.696c-9.22,0-16.696-7.475-16.696-16.696
			s7.475-16.696,16.696-16.696h66.783c9.22,0,16.696,7.475,16.696,16.696s-7.475,16.696-16.696,16.696h-16.696v36.263
			C292.128,143.329,306.087,161.887,306.087,183.652z"/>
	</g>
</g>
</svg>