<?xml version="1.0" encoding="utf-8"?>
<!-- Generator: Adobe Illustrator 22.1.0, SVG Export Plug-In . SVG Version: 6.00 Build 0)  -->
<svg version="1.1" id="Layer_1" xmlns="http://www.w3.org/2000/svg" xmlns:xlink="http://www.w3.org/1999/xlink" x="0px" y="0px"
	 viewBox="0 0 805.7 636.9" style="enable-background:new 0 0 805.7 636.9;" xml:space="preserve">
<g>
	<path d="M318.9,466.4c-28.6,31.7-76.9-12-48.2-43.6c73.9-81.5,193.2-78.5,264.4,0c28.7,31.7-19.6,75.3-48.2,43.6
		C441.1,416,365.8,414.6,318.9,466.4L318.9,466.4z M402.9,491.7c40.1,0,72.6,32.5,72.6,72.6c0,40.1-32.5,72.6-72.6,72.6
		c-40.1,0-72.6-32.5-72.6-72.6C330.3,524.2,362.8,491.7,402.9,491.7L402.9,491.7z M219,387.1c-28.7,31.7-76.9-12-48.2-43.6
		c127.6-140.7,337.2-140,464.1,0c28.7,31.7-19.6,75.3-48.2,43.6C485.8,275.8,320.5,275.2,219,387.1L219,387.1z M139.5,306
		c-28.8,31.7-77.1-12.2-48.2-43.9c171.3-188.6,452.7-187.6,623.1,0c28.8,31.7-19.4,75.6-48.2,43.9
		C521.6,146.8,284.9,145.9,139.5,306L139.5,306z M56.1,208.1c-30.4,30.4-76.6-15.8-46.2-46.2c215.9-215.9,570-215.9,785.8,0
		c30.4,30.4-15.8,76.6-46.2,46.2C559.1,17.6,246.6,17.6,56.1,208.1L56.1,208.1z"/>
</g>
</svg>
